<?xml version="1.0" standalone="no"?>
<!DOCTYPE svg PUBLIC "-//W3C//DTD SVG 20010904//EN"
 "http://www.w3.org/TR/2001/REC-SVG-20010904/DTD/svg10.dtd">
<svg version="1.0" xmlns="http://www.w3.org/2000/svg"
 width="8000.000000pt" height="8000.000000pt" viewBox="0 0 8000.000000 8000.000000"
 preserveAspectRatio="xMidYMid meet">

<g transform="translate(0.000000,8000.000000) scale(0.100000,-0.100000)"
fill="#000000" stroke="none">
<path d="M28115 74729 c-812 -6 -844 -7 -1163 -59 -851 -138 -1642 -504 -2322
-1074 -132 -110 -401 -378 -525 -521 -596 -688 -991 -1546 -1120 -2431 -48
-332 -48 -317 -52 -1824 -2 -784 0 -1604 4 -1823 l8 -399 167 1 c91 1 178 -1
192 -5 l26 -6 0 -744 0 -744 -193 0 -194 0 -6 -622 c-4 -343 -7 -1236 -7
-1985 l0 -1361 -93 -4 c-83 -3 -98 -6 -136 -31 -29 -20 -50 -44 -67 -80 l-24
-52 0 -597 0 -598 93 -2 c50 -1 112 -3 137 -4 25 -2 55 -3 68 -3 22 -1 23 -4
20 -67 l-3 -66 -157 1 -158 2 0 -423 c0 -264 4 -437 11 -461 5 -21 24 -54 42
-74 47 -53 97 -73 190 -73 l77 0 0 -1264 0 -1263 -83 -5 c-100 -5 -156 -32
-202 -96 l-30 -44 -3 -1274 -2 -1274 160 0 160 0 0 -125 c0 -74 -4 -125 -10
-125 -5 0 -6 -8 -3 -17 6 -17 5 -17 -12 0 -16 16 -33 18 -151 15 -83 -2 -136
1 -138 7 -3 6 -4 -411 -3 -927 l2 -936 30 -44 c46 -64 102 -91 201 -96 l81 -4
7 -2912 c3 -1601 7 -2917 8 -2923 2 -17 368 -19 368 -2 0 5 5 7 10 4 6 -4 10
-100 10 -256 l0 -249 -193 0 -194 0 -6 -817 c-9 -1062 -9 -8005 0 -8930 l6
-713 178 0 c132 0 179 -3 182 -12 4 -10 6 -10 6 0 1 7 6 10 11 7 6 -4 10 -143
10 -386 l0 -379 -193 0 -194 0 -7 -867 c-4 -478 -6 -5169 -6 -10425 l1 -9558
200 0 199 0 0 -512 c0 -665 14 -874 79 -1203 21 -108 24 -134 12 -130 -11 5
-12 3 -1 -10 11 -14 10 -14 -14 -5 -41 15 -286 13 -286 -2 0 -10 -2 -10 -8 0
-5 8 -16 10 -27 6 -14 -6 -16 -4 -10 6 5 9 4 11 -3 6 -15 -9 -10 -38 38 -217
357 -1316 1298 -2445 2535 -3040 422 -203 872 -346 1305 -415 52 -8 106 -17
120 -19 64 -11 207 -26 330 -35 144 -11 24045 -15 24073 -4 8 3 18 1 22 -5 3
-6 12 -11 18 -11 7 0 6 4 -3 11 -11 7 -5 9 25 8 22 -2 56 0 75 4 39 7 160 18
232 20 27 1 48 5 48 9 0 4 9 6 19 5 10 0 17 -6 14 -13 -2 -7 2 -15 9 -20 7 -4
10 -4 6 1 -4 4 -2 17 3 28 9 16 13 17 20 6 7 -12 9 -12 9 0 0 8 6 11 16 7 9
-4 22 -2 29 4 6 5 30 11 52 13 22 2 45 7 52 11 6 4 15 5 19 2 5 -3 26 1 48 9
21 7 52 11 68 8 20 -4 31 -1 38 10 9 17 72 24 81 10 2 -5 2 -3 1 4 -2 6 3 14
11 17 8 3 12 0 9 -7 -8 -21 128 -9 146 13 17 20 60 36 60 22 0 -13 39 -22 46
-11 3 5 25 9 49 9 29 0 45 5 49 15 4 12 24 15 86 15 63 0 84 4 98 17 13 14 30
17 71 15 41 -2 57 1 63 12 6 11 24 16 59 16 35 0 51 4 55 15 5 11 22 15 69 15
54 0 63 3 68 20 4 15 14 20 39 20 37 0 118 34 118 50 0 6 23 10 50 10 28 0 50
4 50 8 0 13 79 52 105 52 14 0 25 7 28 20 3 14 14 20 31 20 16 0 26 6 26 15 0
10 10 15 30 15 21 0 30 5 30 16 0 11 8 15 30 12 17 -1 34 3 39 10 4 7 17 14
30 17 24 4 60 42 61 63 0 6 10 12 23 12 35 0 77 23 77 43 0 12 8 17 29 17 21
0 30 6 34 21 3 12 10 18 16 15 13 -8 51 29 51 49 0 9 9 15 24 15 15 0 34 12
49 30 14 16 32 30 40 30 8 0 17 7 21 15 3 8 17 15 31 15 16 0 25 6 25 15 0 8
7 15 15 15 8 0 15 7 15 15 0 19 36 55 55 55 8 0 15 7 15 15 0 8 4 15 10 15 15
0 50 33 50 47 0 7 7 13 15 13 18 0 20 17 3 23 -7 2 -1 8 15 12 21 6 27 13 27
36 0 20 5 29 16 29 28 0 84 67 84 100 0 17 5 30 10 30 13 0 45 32 53 53 4 10
12 16 19 15 6 -2 14 9 17 25 3 15 18 40 34 56 15 16 27 35 27 43 0 7 14 26 30
42 17 17 30 40 30 54 0 15 7 26 20 29 14 4 20 14 20 33 0 16 7 30 16 34 12 4
15 15 12 37 -4 22 0 34 14 42 10 7 18 20 18 29 0 10 7 18 15 18 9 0 15 9 15
25 0 13 6 28 14 32 17 10 26 71 12 76 -6 2 2 2 17 -1 25 -3 28 -1 26 20 -2 12
1 29 5 37 7 10 5 12 -3 6 -20 -12 15 49 48 86 17 18 29 35 28 39 -4 12 87 149
95 144 5 -3 5 -10 2 -16 -4 -7 -2 -8 5 -4 9 6 9 11 1 21 -8 9 -5 23 12 51 12
22 25 41 28 44 3 3 15 25 28 50 13 25 45 86 71 135 169 320 333 756 399 1062
l20 92 -186 1 c-102 0 -188 2 -189 4 -2 2 5 49 16 105 68 338 81 526 81 1199
l0 542 200 0 200 0 0 10425 0 10425 -200 0 -200 0 0 385 0 385 200 0 200 0 0
5230 0 5230 -200 0 -200 0 0 245 0 245 200 0 200 0 0 675 0 675 100 0 c111 0
136 8 185 60 l30 31 3 2760 2 2759 -160 0 -160 0 0 100 0 100 159 0 159 0 7
688 c9 855 4 1235 -18 1277 -36 70 -93 95 -217 95 l-90 0 0 5300 0 5300 -200
0 -200 0 0 750 0 750 200 0 200 0 0 1773 c0 1770 -2 1891 -36 2162 -172 1388
-961 2648 -2139 3417 -682 446 -1457 708 -2270 768 -161 12 -21946 20 -23440
9z m23580 -944 c1240 -123 2327 -846 2927 -1947 218 -399 387 -945 423 -1363
4 -44 10 -89 14 -100 12 -38 13 -58636 1 -58810 -64 -928 -435 -1750 -1085
-2401 -171 -171 -310 -290 -495 -420 -566 -400 -1236 -633 -1939 -674 -169
-10 -24177 -6 -24246 4 -27 3 -104 13 -170 22 -815 102 -1577 476 -2165 1064
-656 656 -1035 1505 -1090 2439 -4 75 -7 13317 -6 29426 1 27933 2 29297 19
29433 108 877 452 1606 1042 2211 163 167 275 265 454 399 532 398 1183 649
1856 716 202 20 24259 21 24460 1z m3336 -64798 c-10 -9 -11 -8 -5 6 3 10 9
15 12 12 3 -3 0 -11 -7 -18z m-31 -31 c0 -2 -7 -6 -15 -10 -8 -3 -15 -1 -15 4
0 6 7 10 15 10 8 0 15 -2 15 -4z m-62 -101 c-3 -3 -9 2 -12 12 -6 14 -5 15 5
6 7 -7 10 -15 7 -18z m-63 -104 c3 -5 2 -12 -3 -15 -5 -3 -9 1 -9 9 0 17 3 19
12 6z m-1815 -1295 c0 -2 -7 -7 -16 -10 -8 -3 -12 -2 -9 4 6 10 25 14 25 6z
m-185 -57 c-4 -5 0 -9 7 -9 20 -1 -24 -24 -47 -25 -12 -1 -26 4 -33 12 -15 16
-8 17 19 3 24 -13 25 -2 2 17 -16 13 -16 13 5 3 25 -12 46 -5 36 12 -4 7 -2 8
5 4 6 -4 9 -12 6 -17z m63 3 c2 -7 -5 -12 -15 -11 -12 0 -14 2 -4 6 11 5 11 7
0 15 -12 8 -12 9 0 6 8 -3 17 -10 19 -16z m-228 -52 c0 -5 -4 -10 -10 -10 -5
0 -10 5 -10 10 0 6 5 10 10 10 6 0 10 -4 10 -10z m-50 -20 c8 -5 11 -10 5 -10
-5 0 -17 5 -25 10 -8 5 -10 10 -5 10 6 0 17 -5 25 -10z m-75 -10 c-3 -5 -14
-10 -23 -9 -14 0 -13 2 3 9 27 11 27 11 20 0z m65 -14 c0 -11 -19 -15 -25 -6
-3 5 1 10 9 10 9 0 16 -2 16 -4z"/>
<path d="M36185 72729 c-173 -17 -323 -61 -478 -141 -589 -303 -860 -999 -630
-1617 119 -319 349 -573 658 -729 71 -35 242 -91 338 -109 87 -17 271 -18
3397 -18 l3305 0 102 22 c272 59 471 164 664 350 187 181 311 406 370 674 30
134 32 368 6 501 -118 591 -583 1011 -1184 1068 -129 12 -6424 12 -6548 -1z"/>
<path d="M55263 9351 c-9 -15 -9 -22 0 -29 9 -8 13 -3 13 19 2 34 2 34 -13 10z"/>
<path d="M55236 9305 c-3 -8 0 -17 6 -21 6 -4 8 -3 4 4 -3 5 -1 12 6 14 8 3 9
6 1 11 -6 4 -13 0 -17 -8z"/>
<path d="M55158 9189 c-4 -11 1 -15 16 -15 13 0 23 6 23 13 0 9 -4 10 -13 2
-8 -7 -13 -6 -16 3 -3 8 -6 8 -10 -3z"/>
<path d="M55020 8899 c0 -5 5 -7 10 -4 6 3 10 8 10 11 0 2 -4 4 -10 4 -5 0
-10 -5 -10 -11z"/>
<path d="M52698 7283 c7 -3 16 -2 19 1 4 3 -2 6 -13 5 -11 0 -14 -3 -6 -6z"/>
<path d="M52307 7239 c7 -7 15 -10 18 -7 3 3 -2 9 -12 12 -14 6 -15 5 -6 -5z"/>
<path d="M52025 7170 c-3 -5 -1 -10 4 -10 6 0 11 5 11 10 0 6 -2 10 -4 10 -3
0 -8 -4 -11 -10z"/>
<path d="M51986 7157 c3 -10 9 -15 12 -12 3 3 0 11 -7 18 -10 9 -11 8 -5 -6z"/>
<path d="M51796 7152 c-3 -5 1 -9 9 -9 8 0 12 4 9 9 -3 4 -7 8 -9 8 -2 0 -6
-4 -9 -8z"/>
</g>
</svg>
