<?xml version="1.0" encoding="utf-8"?>
<!-- Generator: Adobe Illustrator 26.1.0, SVG Export Plug-In . SVG Version: 6.00 Build 0)  -->
<svg version="1.1" id="Livello_1" xmlns="http://www.w3.org/2000/svg" xmlns:xlink="http://www.w3.org/1999/xlink" x="0px" y="0px"
	 viewBox="0 0 240 240" style="enable-background:new 0 0 240 240;" xml:space="preserve">
<style type="text/css">
	.st0{fill:url(#SVGID_1_);}
	.st1{fill:#C8DAEA;}
	.st2{fill:#A9C6D8;}
	.st3{fill:#FFFFFF;}
</style>
<linearGradient id="SVGID_1_" gradientUnits="userSpaceOnUse" x1="120" y1="240" x2="120" y2="0">
	<stop  offset="0" style="stop-color:#FF99CC"/>
	<stop  offset="0" style="stop-color:#9459CE"/>
	<stop  offset="1" style="stop-color:#AE7CE2"/>
</linearGradient>
<circle class="st0" cx="120" cy="120" r="120"/>
<path class="st1" d="M81.2,128.8l14.2,39.4c0,0,1.8,3.7,3.7,3.7s30.3-29.5,30.3-29.5l31.5-60.9l-79.2,37.1L81.2,128.8z"/>
<path class="st2" d="M100.1,138.9l-2.7,29c0,0-1.1,8.9,7.8,0s17.4-15.8,17.4-15.8"/>
<path class="st3" d="M81.5,130.2l-29.3-9.5c0,0-3.5-1.4-2.4-4.6c0.2-0.7,0.7-1.2,2.1-2.2C58.4,109.3,172,68.4,172,68.4
	s3.2-1.1,5.1-0.4c1,0.3,1.7,1.1,1.9,2.1c0.2,0.8,0.3,1.7,0.3,2.6c0,0.8-0.1,1.4-0.2,2.5c-0.7,11.2-21.4,94.5-21.4,94.5
	s-1.2,4.9-5.7,5c-2.2,0.1-4.3-0.8-5.9-2.3c-8.7-7.5-38.8-27.7-45.5-32.2c-0.3-0.2-0.5-0.5-0.5-0.9c-0.1-0.5,0.4-1.1,0.4-1.1
	s52.4-46.6,53.8-51.5c0.1-0.4-0.3-0.6-0.8-0.4c-3.5,1.3-63.8,39.4-70.5,43.6C82.5,130.2,82,130.3,81.5,130.2z"/>
</svg>
