<?xml version="1.0" encoding="utf-8"?>
<!-- Generator: Adobe Illustrator 26.1.0, SVG Export Plug-In . SVG Version: 6.00 Build 0)  -->
<svg version="1.1"
	 id="Layer_1" inkscape:version="1.0.1 (3bc2e813f5, 2020-09-07)" xmlns:cc="http://creativecommons.org/ns#" xmlns:dc="http://purl.org/dc/elements/1.1/" xmlns:inkscape="http://www.inkscape.org/namespaces/inkscape" xmlns:rdf="http://www.w3.org/1999/02/22-rdf-syntax-ns#" xmlns:sodipodi="http://sodipodi.sourceforge.net/DTD/sodipodi-0.dtd" xmlns:svg="http://www.w3.org/2000/svg"
	 xmlns="http://www.w3.org/2000/svg" xmlns:xlink="http://www.w3.org/1999/xlink" x="0px" y="0px" viewBox="0 0 72.2 76.2"
	 style="enable-background:new 0 0 72.2 76.2;" xml:space="preserve">
<style type="text/css">
	.st0{fill:#9459CE;}
	.st1{fill:none;stroke:#9459CE;stroke-width:1.9269;stroke-linecap:round;stroke-linejoin:round;stroke-miterlimit:3.9998;}
</style>
<sodipodi:namedview  bordercolor="#666666" borderopacity="1" fit-margin-bottom="0" fit-margin-left="0" fit-margin-right="0" fit-margin-top="0" gridtolerance="10" guidetolerance="10" id="namedview58" inkscape:current-layer="g82" inkscape:cx="22.53302" inkscape:cy="45.107771" inkscape:document-rotation="0" inkscape:pageopacity="0" inkscape:pageshadow="2" inkscape:window-height="1009" inkscape:window-maximized="1" inkscape:window-width="1920" inkscape:window-x="1912" inkscape:window-y="-8" inkscape:zoom="8" objecttolerance="10" pagecolor="#ffffff" showgrid="false">
	</sodipodi:namedview>
<g id="g84" transform="translate(-429.26705,-345.04681)">
	<g id="g82">
		<path id="path72" inkscape:connector-curvature="0" class="st0" d="M493.4,352.5c-1.9-1.7-9.5-7.3-26.6-7.4c0,0-20.1-1.2-29.9,7.8
			c-5.5,5.5-7.4,13.4-7.6,23.3c-0.2,9.9-0.5,28.4,17.4,33.5v7.7c0,0-0.1,3.1,1.9,3.7c2.5,0.8,3.9-1.6,6.3-4.1c1.3-1.4,3.1-3.4,4.4-5
			c12.2,1,21.6-1.3,22.7-1.7c2.5-0.8,16.4-2.6,18.7-21.1C503.1,370,499.7,357.9,493.4,352.5L493.4,352.5z M495.5,387.7
			c-1.9,15.5-13.2,16.5-15.3,17.1c-0.9,0.3-9.1,2.3-19.5,1.7c0,0-7.7,9.3-10.2,11.8c-0.4,0.4-0.8,0.5-1.1,0.5
			c-0.4-0.1-0.5-0.6-0.5-1.3c0-1,0.1-12.8,0.1-12.8c-15.1-4.2-14.2-20-14.1-28.3c0.2-8.3,1.7-15,6.3-19.6c8.3-7.5,25.4-6.4,25.4-6.4
			c14.4,0.1,21.3,4.4,22.9,5.9C494.7,360.9,497.4,371.8,495.5,387.7L495.5,387.7z"/>
		<path id="path74" inkscape:connector-curvature="0" class="st1" d="M473.8,375.8c-0.2-3.8-2.1-5.8-5.8-6"/>
		<path id="path76" inkscape:connector-curvature="0" class="st1" d="M478.8,377.4c0.1-3.5-1-6.5-3.1-8.8c-2.2-2.4-5.2-3.7-9-4"/>
		<path id="path78" inkscape:connector-curvature="0" class="st1" d="M483.8,379.4c0-6.1-1.9-10.9-5.5-14.4
			c-3.6-3.5-8.1-5.3-13.5-5.3"/>
		<path id="path80" inkscape:connector-curvature="0" class="st0" d="M468.2,388.7c0,0,1.4,0.1,2.1-0.8l1.4-1.8
			c0.7-0.9,2.3-1.5,4-0.6c0.9,0.5,2.5,1.5,3.5,2.3c1.1,0.8,3.3,2.6,3.3,2.6c1.1,0.9,1.3,2.2,0.6,3.6c-0.7,1.3-1.7,2.5-3,3.6
			c-1,0.9-2,1.3-3,1.5h-0.4c-0.4,0-0.9-0.1-1.3-0.2c-1.5-0.4-4-1.5-8.3-3.8c-2.7-1.5-5-3.1-6.9-4.6c-1-0.8-2.1-1.7-3.1-2.8l-0.4-0.4
			c-1.1-1.1-2-2.1-2.8-3.1c-1.5-1.9-3.1-4.2-4.6-6.9c-2.3-4.2-3.4-6.7-3.8-8.3c-0.1-0.4-0.2-0.8-0.2-1.3v-0.4c0.1-1,0.6-2,1.5-3
			c1.1-1.2,2.3-2.2,3.6-3c1.4-0.7,2.7-0.5,3.6,0.6c0,0,1.8,2.2,2.6,3.3c0.7,1,1.7,2.6,2.3,3.5c0.9,1.6,0.3,3.3-0.5,4l-1.8,1.4
			c-0.9,0.7-0.8,2.1-0.8,2.1S458.3,386.1,468.2,388.7L468.2,388.7z"/>
	</g>
</g>
</svg>
